<svg width="900" height="700" viewBox="0 0 900 700" fill="none" xmlns="http://www.w3.org/2000/svg">
  <defs>
    <linearGradient id="bg" x1="0" y1="0" x2="1" y2="1">
      <stop offset="0%" stop-color="#E9EDF7"/>
      <stop offset="100%" stop-color="#D9E3F6"/>
    </linearGradient>
    <linearGradient id="vest" x1="0" y1="0" x2="1" y2="1">
      <stop offset="0%" stop-color="#F3A74A"/>
      <stop offset="100%" stop-color="#D67C14"/>
    </linearGradient>
    <linearGradient id="shirt" x1="0" y1="0" x2="1" y2="1">
      <stop offset="0%" stop-color="#2B6DE3"/>
      <stop offset="100%" stop-color="#0E45A9"/>
    </linearGradient>
  </defs>

  <rect width="900" height="700" rx="40" fill="url(#bg)"/>
  <rect x="48" y="48" width="804" height="604" rx="32" fill="#FFFFFF" fill-opacity="0.44"/>

  <circle cx="452" cy="214" r="88" fill="#E3B792"/>
  <path d="M366 197C373 141 420 107 467 109C516 112 555 150 553 205C542 179 523 164 505 159C474 150 447 166 427 186C414 199 403 214 395 230C384 224 375 213 366 197Z" fill="#223347"/>

  <rect x="292" y="292" width="320" height="274" rx="42" fill="url(#shirt)"/>
  <rect x="332" y="320" width="240" height="240" rx="34" fill="url(#vest)"/>
  <rect x="408" y="338" width="86" height="198" rx="20" fill="#0F3F9D" fill-opacity="0.48"/>

  <rect x="258" y="320" width="60" height="204" rx="30" fill="#E3B792"/>
  <rect x="582" y="320" width="60" height="204" rx="30" fill="#E3B792"/>

  <rect x="170" y="428" width="140" height="42" rx="21" transform="rotate(-22 170 428)" fill="#6E7C91"/>
  <rect x="594" y="446" width="144" height="42" rx="21" transform="rotate(20 594 446)" fill="#6E7C91"/>

  <rect x="294" y="572" width="318" height="26" rx="13" fill="#1A2D47" fill-opacity="0.18"/>
</svg>
